<mxfile host="app.diagrams.net" modified="2024-01-21T00:30:58.090Z" agent="Mozilla/5.0 (Windows NT 10.0; Win64; x64; rv:121.0) Gecko/20100101 Firefox/121.0" etag="8M5as_6RWsWWAabwo8Oc" version="22.1.21" type="github">
  <diagram name="Page-1" id="6IDS-wb3tfMKvkT18osw">
    <mxGraphModel dx="750" dy="410" grid="0" gridSize="10" guides="1" tooltips="1" connect="1" arrows="1" fold="1" page="0" pageScale="1" pageWidth="850" pageHeight="1100" math="0" shadow="0">
      <root>
        <mxCell id="0" />
        <mxCell id="1" parent="0" />
        <mxCell id="AG4e3KHOkEHLmPf4B2BN-2" value="Daniya" style="text;strokeColor=#82b366;fillColor=#d5e8d4;html=1;align=center;verticalAlign=middle;whiteSpace=wrap;rounded=0;fontSize=16;" vertex="1" parent="1">
          <mxGeometry x="63" y="174" width="60" height="30" as="geometry" />
        </mxCell>
      </root>
    </mxGraphModel>
  </diagram>
</mxfile>
